# xmcd
# 
# Track frame offsets:
#     150
#     25183
#     47956
#     54154
#     80246
#     104306
#     137150
#     159960
#     191423
#     213262
#     236215
# 
# Disc length: 3427
# 
# Revision: 1
# Processed by: cddbd v1.5.2PL0 Copyright (c) Steve Scherf et al.
# Submitted via: BonkEnc v1.0.8
# 
DISCID=920d610b
DTITLE=Michel Godard - Cousins Germain
DYEAR=2005
DGENRE=Contemporary Jazz
TTITLE0=Visite
TTITLE1=Nutty's Cousin
TTITLE2=Nutty's Cousin (reprise)
TTITLE3=Sur l'échelle des sphères
TTITLE4=Luna nera
TTITLE5=Cross culture
TTITLE6=Pastorale
TTITLE7=Deep memories
TTITLE8=Le feu et l'eau
TTITLE9=Beautiful love
TTITLE10=Alla Ciaccona
EXTD=YEAR: 2005
EXTT0=
EXTT1=
EXTT2=
EXTT3=
EXTT4=
EXTT5=
EXTT6=
EXTT7=
EXTT8=
EXTT9=
EXTT10=
PLAYORDER=
